<svg id="Layer_1" data-name="Layer 1" xmlns="http://www.w3.org/2000/svg" viewBox="0 0 246.96 290.23"><defs><style>.cls-1,.cls-7{fill:#ebf5f7;stroke:#f2f2f2;}.cls-1,.cls-2,.cls-3,.cls-4,.cls-7{stroke-miterlimit:10;}.cls-2,.cls-3,.cls-4{fill:#f2f2f2;stroke:#ebf5f7;}.cls-2{stroke-width:0.75px;}.cls-3{stroke-width:0.5px;}.cls-4{stroke-width:0.25px;}.cls-5{fill:#f7c00f;}.cls-6{fill:#f27314;}.cls-7{font-size:58.2px;font-family:FuturaPTCond-Book, Futura PT Cond;}.cls-8{letter-spacing:-0.01em;}.cls-9{letter-spacing:-0.01em;}.cls-10{letter-spacing:-0.01em;}.cls-11{letter-spacing:0em;}.cls-12{letter-spacing:0.01em;}</style></defs><title>logo-3-16</title><g id="rocketBody"><polygon class="cls-1" points="124.74 207.58 121.14 207.58 119.94 212.43 125.94 212.43 124.74 207.58"/><path class="cls-1" d="M138.62,7.77h21a1,1,0,0,1,1,1V208.55h-23V8.74A1,1,0,0,1,138.62,7.77Z" transform="translate(-26.18 -7.27)"/><path class="cls-1" d="M139.12,209h20a1,1,0,0,1,1,1v1.94a1,1,0,0,1-1,1h-20a1,1,0,0,1-1-1V210A1,1,0,0,1,139.12,209Z" transform="translate(-26.18 -7.27)"/><path class="cls-1" d="M141.12,212.92h16a1,1,0,0,1,1,1h0a1,1,0,0,1-1,1h-16a1,1,0,0,1-1-1h0A1,1,0,0,1,141.12,212.92Z" transform="translate(-26.18 -7.27)"/><polygon class="cls-1" points="120.94 207.58 117.94 207.58 116.94 211.46 121.94 211.46 120.94 207.58"/><polygon class="cls-1" points="127.94 207.58 124.94 207.58 123.94 211.46 128.94 211.46 127.94 207.58"/><polygon class="cls-1" points="130.94 207.58 128.94 207.58 128.94 211.46 133.94 211.46 130.94 207.58"/><polygon class="cls-1" points="114.94 207.58 116.94 207.58 116.94 211.46 111.94 211.46 114.94 207.58"/><path class="cls-1" d="M122.62,36.39h15a.49.49,0,0,1,.5.48h0a.49.49,0,0,1-.5.48h-15a.49.49,0,0,1-.5-.48h0A.49.49,0,0,1,122.62,36.39Z" transform="translate(-26.18 -7.27)"/><path class="cls-1" d="M160.62,36.39h15a.49.49,0,0,1,.5.48h0a.49.49,0,0,1-.5.48h-15a.49.49,0,0,1-.5-.48h0A.49.49,0,0,1,160.62,36.39Z" transform="translate(-26.18 -7.27)"/></g><g id="leftLeg"><polygon class="cls-2" points="112.42 179.44 113.88 180.85 103.27 191.14 101.81 189.73 112.42 179.44"/><polygon class="cls-3" points="115.32 199.82 101.32 209.04 81.32 215.34 71.32 215.83 77.32 213.89 91.32 209.04 115.32 199.82"/><path class="cls-2" d="M133.5,210h-1c-1.71-.69-.39-1.56,0-1.94l6-4.85-32,16.49Z" transform="translate(-26.18 -7.27)"/><polygon class="cls-3" points="111.8 179.19 113.22 180.47 88.73 205.96 87.31 204.68 111.8 179.19"/><polygon class="cls-4" points="87.21 204.78 88.07 205.61 78.68 214.72 77.82 213.89 87.21 204.78"/></g><g id="rightLeg"><polygon class="cls-2" points="144.83 190.71 143.37 192.12 132.77 181.83 134.22 180.42 144.83 190.71"/><polygon class="cls-3" points="131.32 200.79 145.32 210.01 165.32 216.31 175.32 216.8 169.32 214.86 155.32 210.01 131.32 200.79"/><path class="cls-2" d="M165.5,211h1c1.71-.69.39-1.56,0-1.94l-6-4.85,32,16.49Z" transform="translate(-26.18 -7.27)"/><polygon class="cls-3" points="159.32 205.65 157.91 206.93 133.41 181.45 134.83 180.16 159.32 205.65"/><polygon class="cls-4" points="168.82 214.87 167.97 215.7 158.58 206.59 159.43 205.76 168.82 214.87"/></g><g id="engine"><path class="cls-5" d="M155,212.43H143c-11.13,18,6,35.89,6,52.38h.24c0-16.49,17.13-34.38,6-52.38" transform="translate(-26.18 -7.27)"/><path class="cls-6" d="M152,212.43h-6c-5.57,9,3,17.94,3,26.19h.12c0-8.24,8.57-17.19,3-26.19" transform="translate(-26.18 -7.27)"/></g><text class="cls-7" transform="translate(0.94 275.18) scale(1.03 1)"><tspan class="cls-8">W</tspan><tspan class="cls-9" x="28.92" y="0">A</tspan><tspan class="cls-10" x="47.08" y="0">T</tspan><tspan x="61.98" y="0">CH</tspan><tspan class="cls-10" x="103.01" y="0">R</tspan><tspan class="cls-11" x="124.37" y="0">OCK</tspan><tspan class="cls-12" x="185.65" y="0">E</tspan><tspan x="203.75" y="0">TS</tspan></text></svg>