<svg xmlns="http://www.w3.org/2000/svg" viewBox="0 0 342.63 330.63"><defs><style>.cls-1{fill:#004e6d;}.cls-1,.cls-2,.cls-3,.cls-4{stroke:#f6fcff;}.cls-1,.cls-2{stroke-width:0.63px;}.cls-2,.cls-5{fill:#f6fcff;}.cls-3{fill:#f7b806;}.cls-3,.cls-4{stroke-width:0.52px;}.cls-4{fill:#ef6a0f;}.cls-5{font-size:52px;font-family:Futura-CondensedMedium, Futura;}.cls-6{letter-spacing:-0.02em;}.cls-7{letter-spacing:-0.02em;}.cls-8{letter-spacing:-0.01em;}.cls-9{letter-spacing:0.02em;}</style></defs><title>logo</title><g id="Layer_5" data-name="Layer 5"><rect class="cls-1" x="0.31" y="0.31" width="342" height="330"/></g><g id="Layer_4" data-name="Layer 4"><path class="cls-2" d="M162.54,217.16c2.58,2.24,7.85,5.72,8.39,7.39a4.31,4.31,0,0,1-4.83-.38"/><polyline class="cls-2" points="183.35 236.47 203.4 248.62 218.04 254.88"/><polyline class="cls-2" points="223.3 256.38 219.89 254.63 211.93 246.86"/><path id="path30" class="cls-2" d="M189.4,227.8c9,8.52,9.1,8.39,9.1,8.39v-.25"/><polygon class="cls-2" points="228.13 258.76 218.18 258.89 193.45 250.24 171.7 237.72 190.75 245.61 219.88 256.38 224.43 256.51 228.13 258.76"/><path class="cls-2" d="M175.47,212c15.5,14.66,15.64,14.66,15.64,14.66L189,228.05l-15.49-14.4Z"/><polyline class="cls-2" points="194.01 233.21 180.23 220.69 176.53 220.56 176.53 217.93 180.65 218.06 180.51 220.44"/><polyline class="cls-2" points="180.65 217.93 182.64 218.06 182.5 219.94 196 231.83"/></g><g id="Layer_3" data-name="Layer 3"><path class="cls-2" d="M136.78,217c-2.58,2.24-7.85,5.72-8.39,7.39a4.31,4.31,0,0,0,4.83-.38"/><polyline class="cls-2" points="157.59 236.34 137.55 248.49 122.91 254.75"/><polyline class="cls-2" points="117.64 256.26 121.06 254.5 129.02 246.74"/><path id="path18" class="cls-2" d="M109.91,227.67c-9,8.52-9.1,8.39-9.1,8.39v-.25"/><polygon class="cls-2" points="112.81 258.64 122.77 258.76 147.5 250.12 169.24 237.6 150.2 245.49 121.06 256.26 116.51 256.38 112.81 258.64"/><path class="cls-2" d="M123.84,211.89c-15.5,14.66-15.64,14.66-15.64,14.66l2.13,1.38,15.49-14.4Z"/><polyline class="cls-2" points="146.93 233.09 160.72 220.56 164.41 220.44 164.41 217.81 160.29 217.94 160.43 220.31"/><polyline class="cls-2" points="160.29 217.81 158.3 217.94 158.44 219.81 144.94 231.71"/></g><g id="Layer_2" data-name="Layer 2"><g id="g8"><g id="g10"><path id="path12" class="cls-2" d="M148.09,220.54l1.42,3.88c-1.71,1.3-3.55.79-5.26.13l1.14-3.76"/><path id="path14" class="cls-2" d="M136.92,200.25V3h25.44V200.37"/><path id="path24" class="cls-2" d="M136.49,203.76l.43,14.9c-.18,2.29.94,1.94,1.85,2l3.27-.13"/><g id="g26"><path id="path36" class="cls-2" d="M162.82,203.88l-.43,14.9c.18,2.29-.94,1.94-1.85,2l-3.27-.13"/></g><path id="path38" class="cls-2" d="M136.77,215.28l25.44.13"/><path id="path40" class="cls-2" d="M143.74,220.54c4.16.2,8,.13,11.8,0"/><g id="g42"><path id="path44" class="cls-2" d="M146.53,225.17c1.61.94,3.22,1.37,4.83,0m2.28-4.51,1.56,3.63c-1.7,1.3-3.69.91-5.4.25l1.42-3.88m-7.68.12.57,3.38a6.77,6.77,0,0,1-5.4-.75"/><g id="g46"><path id="path48" class="cls-2" d="M155.67,220.91l-.57,3.38a7.32,7.32,0,0,0,5.68-.62m-2-3.13,1.71,1.63"/></g></g><path id="path50" class="cls-2" d="M162,36.41"/><path id="path50-2" data-name="path50" class="cls-2" d="M136.81,36.28"/><g id="g66"><g id="g68"><path id="path70" class="cls-2" d="M168.55,34l-2.46-.47m.9.42-2.46-.46m1,.49L163,33.49m.93.44-2.49-.53"/></g><g id="g72"><path id="path76" class="cls-2" d="M159.46,33.76c.57,0,3.55.63,3.55.63l11.5,0m-14.06-1,6.62.13,7.44.51"/><path id="path5813" class="cls-2" d="M139,33.58c-.57,0-3.55.63-3.55.63l-11.5,0m14.06-1-6.62.13-7.44.51"/></g><path id="path78" class="cls-2" d="M167.94,33.68l-6.41-.08m7.16.22-6.46-.08"/></g></g><path id="path80" class="cls-3" d="M146.74,225c-9.6,8.15-.2,40.75,1.53,65,1.8-24,13.68-57.2,2.89-64.86"/><path id="path82" class="cls-4" d="M146.74,225.45c-5.61,15.94,1.62,22.65,2.21,34.16.94-11.52,7.79-23.4,2.21-34.16"/></g></g><g id="Layer_1" data-name="Layer 1"><text class="cls-5"><tspan class="cls-6">W</tspan><tspan class="cls-7" x="29.94" y="0">A</tspan><tspan x="50.3" y="0">TCH</tspan><tspan class="cls-8" x="111.46" y="0">R</tspan><tspan x="132.92" y="0">OCKE</tspan><tspan class="cls-9" x="218.38" y="0">T</tspan><tspan x="236.46" y="0">S</tspan></text></g></svg>