<svg xmlns="http://www.w3.org/2000/svg" viewBox="0 0 298 299.78"><defs><style>.cls-1,.cls-2,.cls-3,.cls-5,.cls-8{fill:#caebf9;}.cls-1,.cls-2,.cls-3,.cls-4,.cls-5{stroke:#caebf9;stroke-miterlimit:10;}.cls-2{stroke-width:0.75px;}.cls-3,.cls-4{stroke-width:0.5px;}.cls-4{fill:none;}.cls-5{stroke-width:0.25px;}.cls-6{fill:#f7c00f;}.cls-7{fill:#f27314;}.cls-8{font-size:52px;font-family:Futura-CondensedMedium, Futura;}.cls-9{letter-spacing:-0.02em;}.cls-10{letter-spacing:-0.02em;}.cls-11{letter-spacing:-0.01em;}.cls-12{letter-spacing:0.02em;}</style></defs><title>newlogo</title><g id="rocketBody"><polygon class="cls-1" points="150.8 214 147.2 214 146 219 152 219 150.8 214"/><path class="cls-1" d="M138.5.5h21a1,1,0,0,1,1,1v206a0,0,0,0,1,0,0h-23a0,0,0,0,1,0,0V1.5A1,1,0,0,1,138.5.5Z"/><rect class="cls-1" x="138" y="208" width="22" height="4" rx="1" ry="1"/><rect class="cls-1" x="140" y="212" width="18" height="2" rx="1" ry="1"/><polygon class="cls-1" points="147 214 144 214 143 218 148 218 147 214"/><polygon class="cls-1" points="154 214 151 214 150 218 155 218 154 214"/><polygon class="cls-1" points="157 214 155 214 155 218 160 218 157 214"/><polygon class="cls-1" points="141 214 143 214 143 218 138 218 141 214"/><rect class="cls-1" x="122" y="30" width="16" height="1" rx="0.5" ry="0.5"/><rect class="cls-1" x="160" y="30" width="16" height="1" rx="0.5" ry="0.5"/></g><g id="leftLeg"><rect class="cls-2" x="133.99" y="195.02" width="2.06" height="15" transform="translate(181.75 -40.16) rotate(45)"/><polygon class="cls-3" points="141.5 213.5 127.5 223 107.5 229.5 97.5 230 103.5 228 117.5 223 141.5 213.5"/><path class="cls-4" d="M134.5,220.5h-1c-1.71-.71-.39-1.61,0-2l6-5-32,17Z" transform="translate(-1 -4)"/><rect class="cls-4" x="126.48" y="192.07" width="1.94" height="35.92" transform="translate(176.43 -34.51) rotate(42.99)"/><rect class="cls-5" x="109.52" y="221.09" width="1.21" height="13.28" transform="translate(192.28 -15.17) rotate(45)"/></g><g id="rightLeg"><rect class="cls-2" x="164.95" y="196.02" width="2.06" height="15" transform="translate(426.25 226.07) rotate(135)"/><polygon class="cls-3" points="157.5 214.5 171.5 224 191.5 230.5 201.5 231 195.5 229 181.5 224 157.5 214.5"/><path class="cls-4" d="M166.5,221.5h1c1.71-.71.39-1.61,0-2l-6-5,32,17Z" transform="translate(-1 -4)"/><rect class="cls-4" x="172.57" y="193.07" width="1.94" height="35.92" transform="translate(443.38 243.06) rotate(137.01)"/><rect class="cls-5" x="190.28" y="222.09" width="1.21" height="13.28" transform="translate(486.59 251.5) rotate(135)"/></g><g id="engine"><path class="cls-6" d="M156,223H144c-11.13,18.55,6,37,6,54h.24c0-17,17.13-35.45,6-54" transform="translate(-1 -4)"/><path class="cls-7" d="M153,223h-6c-5.57,9.28,3,18.5,3,27h.12c0-8.5,8.57-17.72,3-27" transform="translate(-1 -4)"/></g><g id="text"><text class="cls-8" transform="translate(21.07 285.1)"><tspan class="cls-9">W</tspan><tspan class="cls-10" x="29.94" y="0">A</tspan><tspan x="50.3" y="0">TCH</tspan><tspan class="cls-11" x="111.46" y="0">R</tspan><tspan x="132.92" y="0">OCKE</tspan><tspan class="cls-12" x="218.38" y="0">T</tspan><tspan x="236.46" y="0">S</tspan></text></g></svg>