<?xml version="1.0" encoding="utf-8"?>
<!-- Generator: Adobe Illustrator 21.0.2, SVG Export Plug-In . SVG Version: 6.00 Build 0)  -->
<svg version="1.1" id="Layer_1" xmlns="http://www.w3.org/2000/svg" xmlns:xlink="http://www.w3.org/1999/xlink" x="0px" y="0px"
	 viewBox="0 0 1024 1024" style="enable-background:new 0 0 1024 1024;" xml:space="preserve">
<style type="text/css">
	.st0{fill:#FFFFFF;}
</style>
<path class="st0" d="M716.7,124.1c-71.9,41.7-148,96.1-218.4,166.6c-45,45-81.2,88.8-110.4,129.8l-178.4,33L0,663l186.8,5.8
	l131.6-131.6c-46.4,96.2-50.5,160-50.5,160l58.9,58.8c0,0,65.8-6.3,162.7-53.2L355.1,837.1L361,1024l209.6-209.5l33.1-179.3
	c41.4-29,85.2-65,129.7-109.5c70.4-70.5,124.8-146.5,166.6-218.5c-46-9.4-88.1-28.5-121.4-61.7C745.3,212.2,726,170,716.7,124.1z
	 M786.2,86.8c5,45,20,81.3,44.8,106c24.8,25,61,39.9,106.1,44.8C1003.1,104.3,1024,0,1024,0S919.6,20.9,786.2,86.8z"/>
</svg>
